<!-- <svg class="svg-icon" width="30px" height="30px" viewBox="0 0 1024 1024" version="1.1" xmlns="http://www.w3.org/2000/svg"><path d="M554.586353 512l170.556235-170.556235c11.444706-11.414588 11.595294-30.659765-0.180706-42.405647a29.906824 29.906824 0 0 0-42.405647-0.180706L512 469.413647l-170.556235-170.556235a30.208 30.208 0 0 0-42.405647 0.180706 29.906824 29.906824 0 0 0-0.180706 42.405647L469.413647 512l-170.556235 170.556235c-11.444706 11.414588-11.595294 30.659765 0.180706 42.405647a29.906824 29.906824 0 0 0 42.405647 0.180706L512 554.586353l170.556235 170.556235c11.414588 11.444706 30.659765 11.595294 42.405647-0.180706a29.906824 29.906824 0 0 0 0.180706-42.405647L554.586353 512zM512 993.882353C245.850353 993.882353 30.117647 778.149647 30.117647 512S245.850353 30.117647 512 30.117647s481.882353 215.732706 481.882353 481.882353-215.732706 481.882353-481.882353 481.882353z" fill="rgba(255,255,255,.6)" /></svg> -->

<svg class="svg-icon" width="30px" height="30px" viewBox="0 0 1024 1024" version="1.1" xmlns="http://www.w3.org/2000/svg"><path fill="rgba(255,255,255,.6)" d="M810.65984 170.65984q18.3296 0 30.49472 12.16512t12.16512 30.49472q0 18.00192-12.32896 30.33088l-268.67712 268.32896 268.67712 268.32896q12.32896 12.32896 12.32896 30.33088 0 18.3296-12.16512 30.49472t-30.49472 12.16512q-18.00192 0-30.33088-12.32896l-268.32896-268.67712-268.32896 268.67712q-12.32896 12.32896-30.33088 12.32896-18.3296 0-30.49472-12.16512t-12.16512-30.49472q0-18.00192 12.32896-30.33088l268.67712-268.32896-268.67712-268.32896q-12.32896-12.32896-12.32896-30.33088 0-18.3296 12.16512-30.49472t30.49472-12.16512q18.00192 0 30.33088 12.32896l268.32896 268.67712 268.32896-268.67712q12.32896-12.32896 30.33088-12.32896z"  /></svg>