<svg width="238" height="238" viewBox="0 0 238 238" fill="none" xmlns="http://www.w3.org/2000/svg">
<rect width="238" height="238" rx="300" fill="#3b3b3b"/>
<path d="M153.688 80.75C157.729 80.75 161.396 81.2708 164.688 82.3125C168.021 83.3542 170.979 84.7708 173.562 86.5625C176.188 88.3542 178.438 90.4583 180.312 92.875C182.229 95.25 183.792 97.8125 185 100.562C186.25 103.312 187.167 106.167 187.75 109.125C188.375 112.042 188.688 114.917 188.688 117.75C188.688 122.5 188.104 126.729 186.938 130.438C185.771 134.146 184.188 137.292 182.188 139.875C180.229 142.417 177.938 144.375 175.312 145.75C172.729 147.083 169.979 147.75 167.062 147.75C164.604 147.75 162.271 147.208 160.062 146.125C157.854 145.042 155.896 143.562 154.188 141.688C152.521 139.812 151.188 137.604 150.188 135.062C149.229 132.521 148.75 129.812 148.75 126.938C148.75 124.229 149.188 121.729 150.062 119.438C150.938 117.104 152.167 115.083 153.75 113.375C155.333 111.667 157.25 110.333 159.5 109.375C161.792 108.417 164.354 107.938 167.188 107.938C168.229 107.938 169.354 108.083 170.562 108.375C171.771 108.667 172.979 109.125 174.188 109.75C175.438 110.375 176.625 111.146 177.75 112.062C178.875 112.979 179.875 114.062 180.75 115.312C180.583 112.229 179.958 109.104 178.875 105.938C177.792 102.771 176.167 99.9167 174 97.375C171.833 94.8333 169.083 92.7708 165.75 91.1875C162.417 89.5625 158.417 88.75 153.75 88.75C151.375 88.75 149.167 89.2083 147.125 90.125C145.125 91 143.375 92.375 141.875 94.25C140.375 96.0833 139.188 98.4375 138.312 101.312C137.479 104.188 137.062 107.625 137.062 111.625V147H129.062V111.625C129.062 107.792 128.458 104.438 127.25 101.562C126.083 98.6875 124.5 96.3125 122.5 94.4375C120.5 92.5208 118.188 91.1042 115.562 90.1875C112.979 89.2292 110.271 88.75 107.438 88.75C107.104 88.75 106.771 88.7708 106.438 88.8125C106.146 88.8125 105.833 88.8125 105.5 88.8125C108.125 90.9375 110.146 93.2292 111.562 95.6875C112.979 98.1042 113.688 100.75 113.688 103.625C113.688 106.333 112.854 108.812 111.188 111.062C109.562 113.271 107.188 114.896 104.062 115.938C105.438 116.146 106.812 116.604 108.188 117.312C109.562 117.979 110.792 118.896 111.875 120.062C113 121.229 113.896 122.604 114.562 124.188C115.271 125.729 115.625 127.458 115.625 129.375C115.625 132.25 115.083 134.833 114 137.125C112.958 139.417 111.521 141.354 109.688 142.938C107.896 144.479 105.771 145.667 103.312 146.5C100.896 147.333 98.3125 147.75 95.5625 147.75C92.1875 147.75 89.0208 147.042 86.0625 145.625C83.1458 144.167 80.6042 142.104 78.4375 139.438C76.3125 136.771 74.625 133.542 73.375 129.75C72.1667 125.917 71.5625 121.604 71.5625 116.812C71.5625 114.396 71.875 111.896 72.5 109.312C73.1667 106.729 74.0833 104.208 75.25 101.75C76.4583 99.2917 77.8958 96.9792 79.5625 94.8125C81.2292 92.6042 83.0833 90.6875 85.125 89.0625C84.125 88.9792 83.1458 88.9167 82.1875 88.875C81.2708 88.7917 80.3958 88.75 79.5625 88.75C75.7708 88.75 72.2083 89.3958 68.875 90.6875C65.5833 91.9792 62.6875 93.8125 60.1875 96.1875C57.7292 98.5208 55.7708 101.375 54.3125 104.75C52.8958 108.083 52.1875 111.812 52.1875 115.938C52.1875 119.271 52.7083 122.292 53.75 125C54.7917 127.708 56.0625 130.125 57.5625 132.25C59.0625 134.333 60.6458 136.104 62.3125 137.562C64.0208 139.021 65.5417 140.167 66.875 141L62.0625 147.75C59.6042 146.375 57.2917 144.604 55.125 142.438C52.9583 140.271 51.0625 137.833 49.4375 135.125C47.8125 132.375 46.5208 129.396 45.5625 126.188C44.6458 122.938 44.1875 119.562 44.1875 116.062C44.1875 110.854 45.0833 106.083 46.875 101.75C48.7083 97.4167 51.2083 93.7083 54.375 90.625C57.5833 87.5 61.3542 85.0833 65.6875 83.375C70.0208 81.625 74.6875 80.75 79.6875 80.75C82.6875 80.75 85.3542 80.9583 87.6875 81.375C90.0208 81.75 92.375 82.3125 94.75 83.0625C96.875 82.3125 98.9375 81.75 100.938 81.375C102.979 80.9583 105.188 80.75 107.562 80.75C109.979 80.75 112.375 81.0208 114.75 81.5625C117.167 82.1042 119.458 82.9167 121.625 84C123.792 85.0417 125.792 86.3542 127.625 87.9375C129.5 89.5208 131.125 91.3542 132.5 93.4375C133.792 91.0625 135.312 89.0625 137.062 87.4375C138.812 85.8125 140.646 84.5 142.562 83.5C144.521 82.5 146.458 81.7917 148.375 81.375C150.292 80.9583 152.062 80.75 153.688 80.75ZM79.5625 116.812C79.5625 120.604 80.0208 123.938 80.9375 126.812C81.8958 129.646 83.125 132.021 84.625 133.938C86.1667 135.854 87.875 137.312 89.75 138.312C91.6667 139.271 93.6042 139.75 95.5625 139.75C97.0625 139.75 98.5208 139.562 99.9375 139.188C101.396 138.771 102.688 138.146 103.812 137.312C104.979 136.479 105.896 135.417 106.562 134.125C107.271 132.833 107.625 131.292 107.625 129.5C107.625 127.917 107.292 126.562 106.625 125.438C105.958 124.312 105.021 123.396 103.812 122.688C102.646 121.979 101.25 121.458 99.625 121.125C98 120.792 96.2292 120.625 94.3125 120.625H93.4375V112.25H94.3125C95.5208 112.25 96.7917 112.083 98.125 111.75C99.4583 111.375 100.688 110.854 101.812 110.188C102.938 109.479 103.854 108.604 104.562 107.562C105.312 106.479 105.688 105.25 105.688 103.875C105.688 102.5 105.417 101.208 104.875 100C104.333 98.75 103.562 97.6042 102.562 96.5625C101.604 95.4792 100.458 94.5208 99.125 93.6875C97.8333 92.8125 96.4167 92.0625 94.875 91.4375C92.5833 92.4375 90.5 93.7292 88.625 95.3125C86.75 96.8958 85.125 98.7708 83.75 100.938C82.4167 103.062 81.375 105.458 80.625 108.125C79.9167 110.792 79.5625 113.688 79.5625 116.812ZM156.75 126.938C156.75 128.812 157.062 130.542 157.688 132.125C158.312 133.667 159.146 135 160.188 136.125C161.271 137.25 162.5 138.146 163.875 138.812C165.25 139.438 166.688 139.75 168.188 139.75C170.146 139.75 171.854 139.208 173.312 138.125C174.812 137 176.042 135.729 177 134.312C178 132.854 178.75 131.417 179.25 130C179.75 128.583 180 127.562 180 126.938C179.792 125.938 179.292 124.812 178.5 123.562C177.708 122.271 176.708 121.062 175.5 119.938C174.333 118.812 173.021 117.875 171.562 117.125C170.146 116.333 168.708 115.938 167.25 115.938C166.208 115.938 165.062 116.125 163.812 116.5C162.604 116.833 161.479 117.417 160.438 118.25C159.396 119.083 158.521 120.208 157.812 121.625C157.104 123.042 156.75 124.812 156.75 126.938Z" fill="white"/>
</svg>
